<svg width="144" height="79" viewBox="0 0 144 79" fill="none" xmlns="http://www.w3.org/2000/svg">
  <path
    d="M104.04 34H108.04C108.44 34 108.64 34.2 108.64 34.6V46.4C108.64 48.6667 109.227 50.3733 110.4 51.52C111.573 52.64 113.173 53.2 115.2 53.2C117.227 53.2 119.133 52.3067 120.92 50.52C121.72 49.6933 122.427 48.7867 123.04 47.8V35.8C123.04 35.4 122.84 35.2 122.44 35.2H119.64C119.24 35.2 119.04 35 119.04 34.6C119.04 34.2 119.24 34 119.64 34H123.64C124.04 34 124.24 34.2 124.24 34.6V52.2C124.24 52.6 124.44 52.8 124.84 52.8H127.64C128.04 52.8 128.24 53 128.24 53.4C128.24 53.8 128.04 54 127.64 54H123.64C123.24 54 123.04 53.8 123.04 53.4V51.16C123.04 50.8933 122.987 50.7067 122.88 50.6C122.773 50.4933 122.613 50.5467 122.4 50.76C120.24 53.1867 117.893 54.4 115.36 54.4C112.827 54.4 110.867 53.72 109.48 52.36C108.12 50.9733 107.44 48.9867 107.44 46.4V35.8C107.44 35.4 107.24 35.2 106.84 35.2H104.04C103.64 35.2 103.44 35 103.44 34.6C103.44 34.2 103.64 34 104.04 34ZM134.376 54C133.976 54 133.776 53.8 133.776 53.4C133.776 53 133.976 52.8 134.376 52.8H137.176C137.576 52.8 137.776 52.6 137.776 52.2V27.8C137.776 27.4 137.576 27.2 137.176 27.2H134.376C133.976 27.2 133.776 27 133.776 26.6C133.776 26.2 133.976 26 134.376 26H138.376C138.776 26 138.976 26.2 138.976 26.6V52.2C138.976 52.6 139.176 52.8 139.576 52.8H142.376C142.776 52.8 142.976 53 142.976 53.4C142.976 53.8 142.776 54 142.376 54H134.376Z"
    fill="#B08450" />
  <path
    d="M6.56 51C8.8 52.4666 11.2533 53.2 13.92 53.2C16.6133 53.2 18.6933 52.6133 20.16 51.44C21.6533 50.24 22.4 48.6933 22.4 46.8C22.4 45.76 22.08 44.8533 21.44 44.08C20.8 43.3066 20 42.7066 19.04 42.28C17.9733 41.8 15.9067 41.1466 12.84 40.32C9.77333 39.4666 7.65333 38.76 6.48 38.2C5.33333 37.6133 4.42667 36.88 3.76 36C3.12 35.12 2.8 34.1066 2.8 32.96C2.8 30.72 3.53333 28.9333 5 27.6C6.46667 26.2666 8.8 25.6 12 25.6C15.1733 25.6 18.0933 26.7333 20.76 29C21.1867 29.3466 21.4 29.2133 21.4 28.6V26.6C21.4 26.2 21.6 26 22 26C22.4 26 22.6 26.2 22.6 26.6V34.2C22.6 34.6 22.4 34.8 22 34.8C21.6 34.8 21.4 34.6 21.4 34.2V31.4C19.9333 29.72 18.1067 28.4266 15.92 27.52C14.7467 27.04 13.44 26.8 12 26.8C9.28 26.8 7.26667 27.36 5.96 28.48C4.65333 29.6 4 30.9733 4 32.6C4 33.64 4.32 34.5466 4.96 35.32C5.6 36.0933 6.4 36.6933 7.36 37.12C8.42667 37.6 10.4933 38.2666 13.56 39.12C16.6267 39.9466 18.7333 40.6533 19.88 41.24C21.0533 41.8 21.96 42.52 22.6 43.4C23.2667 44.28 23.6 45.3333 23.6 46.56C23.6 48.96 22.76 50.8666 21.08 52.28C19.4 53.6933 16.9067 54.4 13.6 54.4C10.2933 54.4 7.30667 53.2666 4.64 51C4.21333 50.6533 4 50.7866 4 51.4V53.4C4 53.8 3.8 54 3.4 54C3 54 2.8 53.8 2.8 53.4V45.8C2.8 45.4 3 45.2 3.4 45.2C3.8 45.2 4 45.4 4 45.8V48.8C4.72 49.6266 5.57333 50.36 6.56 51Z"
    fill="#B08450" />
  <path
    d="M64.0658 24.7587L64.328 27.2253C64.5092 28.932 66.8317 29.2999 67.5318 27.7328L68.5432 25.4679L68.0302 27.8948C67.6753 29.5742 69.7704 30.6416 70.9204 29.3676L72.5825 27.5259L71.3446 29.6757C70.4881 31.1631 72.1508 32.8258 73.6382 31.9692L75.788 30.7314L73.9463 32.3934C72.672 33.5435 73.7397 35.6386 75.419 35.2837L77.846 34.7706L75.5811 35.7821C74.014 36.4818 74.3816 38.8044 76.0886 38.9859L78.5552 39.2481L76.0886 39.5103C74.3819 39.6915 74.014 42.0144 75.5811 42.7141L77.846 43.7256L75.419 43.2125C73.7397 42.8576 72.6723 44.9527 73.9463 46.1027L75.788 47.7649L73.6382 46.527C72.1508 45.6704 70.4881 47.3331 71.3446 48.8205L72.5825 50.9703L70.9204 49.1286C69.7704 47.8543 67.6753 48.922 68.0302 50.6014L68.5432 53.0283L67.5318 50.7634C66.832 49.1963 64.5095 49.5642 64.328 51.2709L64.0658 53.7375L63.8036 51.2709C63.6224 49.5642 61.2998 49.1963 60.5997 50.7634L59.5883 53.0283L60.1013 50.6014C60.4563 48.922 58.3612 47.8546 57.2111 49.1286L55.549 50.9703L56.7869 48.8205C57.6435 47.3331 55.9807 45.6704 54.4933 46.527L52.3436 47.7649L54.1853 46.1027C55.4596 44.9527 54.3918 42.8576 52.7128 43.2125L50.2859 43.7256L52.5508 42.7141C54.1179 42.0144 53.75 39.6918 52.0433 39.5103L49.5767 39.2481L52.0433 38.9859C53.75 38.8047 54.1179 36.4818 52.5508 35.7821L50.2859 34.7706L52.7128 35.2837C54.3922 35.6386 55.4596 33.5435 54.1853 32.3934L52.3436 30.7314L54.4933 31.9692C55.9807 32.8258 57.6435 31.1631 56.7869 29.6757L55.549 27.5259L57.2111 29.3676C58.3612 30.6419 60.4563 29.5742 60.1013 27.8948L59.5883 25.4679L60.5997 27.7328C61.2995 29.2999 63.622 28.9323 63.8036 27.2253L64.0658 24.7587Z"
    stroke="#B08450" stroke-width="1.43206" stroke-miterlimit="10" />
  <path
    d="M64.0658 24.7587L64.462 36.7473L68.5432 25.4679L65.2152 36.9923L72.5825 27.5259L65.8561 37.4578L75.788 30.7314L66.3216 38.0984L77.846 34.7706L66.5666 38.8519L78.5552 39.2478L66.5666 39.644L77.846 43.7253L66.3216 40.3972L75.788 47.7645L65.8561 41.0381L72.5825 50.97L65.2152 41.5036L68.5432 53.028L64.462 41.7486L64.0658 53.7372L63.6698 41.7486L59.5886 53.028L62.9167 41.5036L55.5493 50.97L62.2758 41.0381L52.3439 47.7645L61.8103 40.3972L50.2859 43.7253L61.5653 39.644L49.5767 39.2478L61.5653 38.8519L50.2859 34.7706L61.8103 38.0984L52.3439 30.7314L62.2758 37.4578L55.5493 27.5259L62.9167 36.9923L59.5886 25.4679L63.6698 36.7473L64.0658 24.7587Z"
    fill="#B08450" stroke="#B08450" stroke-width="1.43206" stroke-miterlimit="10" />
  <path
    d="M64.0659 32.3316L64.4508 38.5369L69.7549 35.0715L64.9307 39.1385L71.16 41.2274L64.7595 39.8887L67.2232 46.1639L64.0659 40.2224L60.909 46.1639L63.373 39.8887L56.9722 41.2274L63.2015 39.1385L58.3773 35.0715L63.6814 38.5369L64.0659 32.3316Z"
    fill="#0B022D" />
  <path
    d="M50.6933 24.0739C49.959 24.0739 49.9577 25.2151 50.6933 25.2151C51.4275 25.2151 51.4285 24.0739 50.6933 24.0739Z"
    fill="#B08450" />
  <path d="M60.5702 18C59.8503 18 59.849 19.1188 60.5702 19.1188C61.2902 19.1188 61.2915 18 60.5702 18Z"
    fill="#B08450" />
  <path
    d="M81.1179 36.963C80.6283 36.963 80.6277 37.7239 81.1179 37.7239C81.6076 37.7239 81.6082 36.963 81.1179 36.963Z"
    fill="#B08450" />
  <path
    d="M55.0145 56.2774C54.64 56.2774 54.6394 56.8591 55.0145 56.8591C55.3889 56.8591 55.3896 56.2774 55.0145 56.2774Z"
    fill="#B08450" />
  <path
    d="M76.444 27.0499C75.6808 27.0499 75.6795 28.2357 76.444 28.2357C77.2072 28.2357 77.2085 27.0499 76.444 27.0499Z"
    fill="#B08450" />
  <path
    d="M47.5187 41.1275C46.8277 41.1275 46.8264 42.2014 47.5187 42.2014C48.2097 42.2018 48.211 41.1275 47.5187 41.1275Z"
    fill="#B08450" />
  <path
    d="M76.7966 51.3744C75.6736 51.3744 75.6716 53.1197 76.7966 53.1197C77.9196 53.1197 77.9213 51.3744 76.7966 51.3744Z"
    fill="#B08450" />
  <path
    d="M48.4886 31.4184C48.0133 31.4184 48.0126 32.1569 48.4886 32.1569C48.9635 32.1569 48.9645 31.4184 48.4886 31.4184Z"
    fill="#B08450" />
  <path
    d="M66.6551 54.0047C65.1723 54.0047 65.1697 56.3093 66.6551 56.3093C68.1379 56.3096 68.1405 54.0047 66.6551 54.0047Z"
    fill="#B08450" />
  <path
    d="M67.9852 21.4507C67.9725 21.4289 67.9595 21.4072 67.9465 21.3854C67.8824 21.2767 67.7207 21.2767 67.6566 21.3854C67.6439 21.4072 67.6309 21.4289 67.6179 21.4507C67.3843 21.8476 68.2188 21.8476 67.9852 21.4507Z"
    fill="#B08450" />
  <path
    d="M61.5402 56.7039C59.8989 56.7039 59.896 59.2548 61.5402 59.2548C63.1818 59.2548 63.1844 56.7039 61.5402 56.7039Z"
    fill="#B08450" />
  <path
    d="M90.7042 43.8126C93.1112 29.3251 83.3179 15.6293 68.8304 13.2223C54.3428 10.8153 40.6471 20.6085 38.2401 35.0961C35.8331 49.5836 45.6263 63.2794 60.1139 65.6864C74.6014 68.0934 88.2971 58.3001 90.7042 43.8126Z"
    stroke="#B08450" stroke-width="0.75" stroke-miterlimit="10" stroke-dasharray="2 2" />
  <path
    d="M71.0738 55.2564C79.803 51.5961 83.9122 41.5528 80.2521 32.8241C76.592 24.0954 66.5484 19.9868 57.8192 23.6471C49.0901 27.3075 44.9808 37.3507 48.6409 46.0794C52.3011 54.8081 62.3446 58.9168 71.0738 55.2564Z"
    stroke="#B08450" stroke-miterlimit="10" />
  <path d="M64.4464 0.999995L26 39.4464L64.4464 77.8929L102.893 39.4464L64.4464 0.999995Z" stroke="#B08450"
    stroke-width="0.75" stroke-miterlimit="10" />
</svg>