<svg width="185" height="197" viewBox="0 0 185 197" fill="none" xmlns="http://www.w3.org/2000/svg">
<path d="M173.455 145.648C163.674 119.876 142.831 100.199 117.608 91.2184C126.695 60.2783 119.112 26.7353 97.3424 2.7433C95.7597 0.999597 93.5033 0 91.1491 0C91.1475 0 91.1452 0 91.1436 0C88.7832 0.00167718 86.5201 1.00742 84.9352 2.75896C63.5311 26.4038 56.2957 58.3937 64.4317 88.5561C53.8358 91.1664 43.7471 95.6467 34.5735 101.872C19.2519 112.269 7.50549 126.82 0.603341 143.955C-0.298422 146.195 -0.184933 148.714 0.914178 150.867C2.01608 153.025 3.99683 154.599 6.34824 155.184C27.9564 160.558 51.3514 157.327 72.2205 146.087C78.9885 142.443 85.1963 138.107 90.7528 133.19C110.838 152.421 138.626 160.721 166.778 156.872C169.312 156.525 171.516 155.063 172.824 152.86C174.13 150.661 174.36 148.033 173.455 145.648ZM70.2029 56.2067C71.837 38.5891 79.0763 22.1935 91.1463 8.77164C110.715 30.4911 117.521 60.758 109.343 88.7015C102.035 86.8443 94.4359 85.8637 86.699 85.8637C82.065 85.8637 77.4729 86.2047 72.9479 86.8778C70.1906 76.8852 69.2463 66.5169 70.2029 56.2067ZM68.1243 138.481C49.251 148.646 28.1745 151.622 8.74157 146.876C15.0159 131.472 25.6201 118.387 39.425 109.02C47.9048 103.266 57.2495 99.1548 67.0626 96.8084C68.5536 100.851 70.3298 104.841 72.3955 108.756C75.9204 115.436 80.0809 121.509 84.7854 126.932C79.7846 131.325 74.2035 135.207 68.1243 138.481ZM80.0362 104.724C78.3976 101.62 76.9529 98.4459 75.7035 95.2162C79.3278 94.7427 82.9997 94.5028 86.6985 94.5028C93.448 94.5028 100.078 95.3241 106.472 96.8861C102.83 105.692 97.5873 113.791 91.0111 120.878C86.8125 115.996 83.1289 110.585 80.0362 104.724ZM113.702 139.324C107.631 135.995 102.026 131.899 96.9857 127.138C104.627 118.999 110.673 109.615 114.786 99.3773C137.524 107.489 156.325 125.181 165.243 148.361C146.782 150.817 128.966 147.693 113.702 139.324Z" fill="#685E68" fill-opacity="0.8"/>
<path d="M92.5 197C143.586 197 185 155.586 185 104.5C185 53.4137 143.586 12 92.5 12C41.4137 12 0 53.4137 0 104.5C0 155.586 41.4137 197 92.5 197Z" fill="url(#paint0_radial_98_962)"/>
<path d="M74.6519 59.4266L92.5794 99.4638L111.751 60.0079L96.1164 100.994L137.573 86.6522L97.5359 104.579L136.992 123.752L96.0053 108.117L110.347 149.573L92.4211 109.535L73.2492 148.992L88.883 108.004L47.4263 122.348L87.4646 104.421L48.0087 85.2484L88.9952 100.883L74.6519 59.4266Z" fill="#FFFCC7"/>
<path d="M92.4999 39.0225L95.1033 98.2148L138.8 58.2001L98.7851 101.897L157.979 104.5L98.7851 107.103L138.8 150.8L95.1033 110.784L92.4999 169.978L89.8977 110.784L46.2011 150.8L86.2159 107.103L27.0225 104.5L86.2159 101.897L46.2011 58.2001L89.8977 98.2148L92.4999 39.0225Z" fill="#FFFCC7"/>
<path d="M124.997 109.723C127.883 91.7709 115.669 74.8788 97.7175 71.9932C79.7657 69.1076 62.8736 81.3212 59.988 99.273C57.1024 117.225 69.316 134.117 87.2678 137.002C105.22 139.888 122.112 127.675 124.997 109.723Z" stroke="#FFFCC7" stroke-width="4.93959" stroke-miterlimit="10"/>
<path d="M131.321 130.468L131.008 130.615C129.842 131.16 129.842 133.147 131.008 133.693C131.112 133.742 131.216 133.79 131.321 133.84C132.626 134.449 134.259 133.736 134.259 132.154C134.259 130.571 132.625 129.857 131.321 130.468Z" fill="#FFFCC7"/>
<path d="M38.8904 75.3083C36.6326 75.3083 36.6293 78.8162 38.8904 78.8162C41.1482 78.8162 41.1515 75.3083 38.8904 75.3083Z" fill="#FFFCC7"/>
<path d="M72.025 49.215C70.0949 49.215 70.0915 52.2145 72.025 52.2145C73.954 52.2134 73.9574 49.215 72.025 49.215Z" fill="#FFFCC7"/>
<path d="M143.41 81.4825C143.282 81.5015 143.154 81.5184 143.026 81.5374C139.947 81.9751 139.944 87.3199 143.026 87.7575C143.154 87.7755 143.282 87.7946 143.41 87.8125C148.702 88.5632 148.736 80.7261 143.41 81.4825Z" fill="#FFFCC7"/>
<path d="M66.0363 153.893C64.2162 153.893 64.2128 156.722 66.0363 156.722C67.8575 156.723 67.8598 153.893 66.0363 153.893Z" fill="#FFFCC7"/>
<path d="M107.555 159.18C103.804 159.18 103.798 165.009 107.555 165.009C111.305 165.009 111.312 159.18 107.555 159.18Z" fill="#FFFCC7"/>
<defs>
<radialGradient id="paint0_radial_98_962" cx="0" cy="0" r="1" gradientUnits="userSpaceOnUse" gradientTransform="translate(92.5005 104.5) rotate(-0.340132) scale(81.4343)">
<stop stop-color="#FFFCC7" stop-opacity="0.7"/>
<stop offset="1" stop-color="#FFFCC7" stop-opacity="0"/>
</radialGradient>
</defs>
</svg>
