<svg width="101" height="63" viewBox="0 0 101 63" fill="none" xmlns="http://www.w3.org/2000/svg">
<path d="M99.5571 31.5C99.5571 48.6062 85.2451 62.5 67.5571 62.5C49.8692 62.5 35.5571 48.6062 35.5571 31.5C35.5571 14.3938 49.8692 0.5 67.5571 0.5C85.2451 0.5 99.5571 14.3938 99.5571 31.5Z" stroke="white"/>
<path d="M70.8213 32.7071C71.2118 32.3166 71.2118 31.6834 70.8213 31.2929L64.4573 24.9289C64.0668 24.5384 63.4336 24.5384 63.0431 24.9289C62.6526 25.3195 62.6526 25.9526 63.0431 26.3431L68.7 32L63.0431 37.6569C62.6526 38.0474 62.6526 38.6805 63.0431 39.0711C63.4336 39.4616 64.0668 39.4616 64.4573 39.0711L70.8213 32.7071ZM0 33H70.1142V31H0L0 33Z" fill="white"/>
</svg>
