<svg width="782" height="148" viewBox="0 0 782 148" fill="none" xmlns="http://www.w3.org/2000/svg">
<path d="M496.76 70.85C496.667 70.57 496.527 70.43 496.34 70.43C496.153 70.43 496.013 70.57 495.92 70.85L486.33 95.77C485.957 96.47 486.213 96.82 487.1 96.82H505.58C506.42 96.82 506.677 96.47 506.35 95.77L496.76 70.85ZM507.96 99.9C507.68 99.2467 507.12 98.92 506.28 98.92H486.4C485.56 98.92 485 99.2467 484.72 99.9L479.75 112.85C479.377 113.55 479.61 113.9 480.45 113.9H484.65C485.35 113.9 485.7 114.25 485.7 114.95C485.7 115.65 485.35 116 484.65 116H471.35C470.65 116 470.3 115.65 470.3 114.95C470.3 114.25 470.65 113.9 471.35 113.9H475.9C476.46 113.9 476.927 113.55 477.3 112.85L494.8 67.35C494.987 66.65 495.5 66.3 496.34 66.3C497.18 66.3 497.693 66.65 497.88 67.35L515.38 112.85C515.707 113.55 516.173 113.9 516.78 113.9H521.33C522.03 113.9 522.38 114.25 522.38 114.95C522.38 115.65 522.03 116 521.33 116H508.03C507.33 116 506.98 115.65 506.98 114.95C506.98 114.25 507.33 113.9 508.03 113.9H512.23C513.023 113.9 513.257 113.55 512.93 112.85L507.96 99.9ZM530.474 105.15C531.548 107.017 532.738 108.603 534.044 109.91C537.171 113.037 540.671 114.6 544.544 114.6C548.464 114.6 551.638 113.2 554.064 110.4C556.538 107.553 557.774 103.61 557.774 98.57C557.774 93.4833 556.304 89.6333 553.364 87.02C550.424 84.4067 546.294 83.1 540.974 83.1H531.524C530.824 83.1 530.474 83.45 530.474 84.15V105.15ZM530.474 79.95C530.474 80.65 530.824 81 531.524 81H540.974C546.901 81 551.521 82.5167 554.834 85.55C558.194 88.5833 559.874 92.9233 559.874 98.57C559.874 104.17 558.474 108.603 555.674 111.87C552.874 115.09 549.141 116.7 544.474 116.7C541.581 116.7 538.968 116.023 536.634 114.67C534.441 113.27 532.761 111.823 531.594 110.33C531.221 109.957 530.941 109.863 530.754 110.05C530.568 110.237 530.474 110.563 530.474 111.03V114.95C530.474 115.65 530.124 116 529.424 116C528.724 116 528.374 115.65 528.374 114.95V70.15C528.374 69.45 528.024 69.1 527.324 69.1H522.424C521.724 69.1 521.374 68.75 521.374 68.05C521.374 67.35 521.724 67 522.424 67H529.424C530.124 67 530.474 67.35 530.474 68.05V79.95ZM571.889 111.66C568.715 108.3 567.129 103.913 567.129 98.5C567.129 93.0867 568.715 88.7 571.889 85.34C575.062 81.98 579.192 80.3 584.279 80.3C589.365 80.3 593.495 81.98 596.669 85.34C599.842 88.7 601.429 93.0867 601.429 98.5C601.429 103.913 599.842 108.3 596.669 111.66C593.495 115.02 589.365 116.7 584.279 116.7C579.192 116.7 575.062 115.02 571.889 111.66ZM584.279 82.4C579.752 82.4 576.112 83.87 573.359 86.81C570.605 89.75 569.229 93.67 569.229 98.57C569.229 103.423 570.582 107.32 573.289 110.26C576.042 113.153 579.705 114.6 584.279 114.6C588.852 114.6 592.492 113.153 595.199 110.26C597.952 107.32 599.329 103.423 599.329 98.57C599.329 93.67 597.952 89.75 595.199 86.81C592.445 83.87 588.805 82.4 584.279 82.4ZM606.531 81H613.531C614.231 81 614.581 81.35 614.581 82.05V102.7C614.581 106.667 615.608 109.653 617.661 111.66C619.714 113.62 622.514 114.6 626.061 114.6C629.608 114.6 632.944 113.037 636.071 109.91C637.471 108.463 638.708 106.877 639.781 105.15V84.15C639.781 83.45 639.431 83.1 638.731 83.1H633.831C633.131 83.1 632.781 82.75 632.781 82.05C632.781 81.35 633.131 81 633.831 81H640.831C641.531 81 641.881 81.35 641.881 82.05V112.85C641.881 113.55 642.231 113.9 642.931 113.9H647.831C648.531 113.9 648.881 114.25 648.881 114.95C648.881 115.65 648.531 116 647.831 116H640.831C640.131 116 639.781 115.65 639.781 114.95V111.03C639.781 110.563 639.688 110.237 639.501 110.05C639.314 109.863 639.034 109.957 638.661 110.33C634.881 114.577 630.774 116.7 626.341 116.7C621.908 116.7 618.478 115.51 616.051 113.13C613.671 110.703 612.481 107.227 612.481 102.7V84.15C612.481 83.45 612.131 83.1 611.431 83.1H606.531C605.831 83.1 605.481 82.75 605.481 82.05C605.481 81.35 605.831 81 606.531 81ZM675.941 111.1C676.408 110.633 676.828 110.587 677.201 110.96C677.575 111.333 677.761 111.637 677.761 111.87C677.808 112.103 677.645 112.407 677.271 112.78C676.151 113.9 675.031 114.74 673.911 115.3C671.018 116.28 669.361 116.747 668.941 116.7C668.521 116.7 668.288 116.7 668.241 116.7C664.975 116.7 662.408 115.65 660.541 113.55C658.675 111.45 657.741 108.417 657.741 104.45V84.15C657.741 83.45 657.391 83.1 656.691 83.1H651.791C651.091 83.1 650.741 82.75 650.741 82.05C650.741 81.35 651.091 81 651.791 81H656.691C657.391 81 657.741 80.65 657.741 79.95V68.05C657.741 67.35 658.091 67 658.791 67C659.491 67 659.841 67.35 659.841 68.05V79.95C659.841 80.65 660.191 81 660.891 81H672.791C673.491 81 673.841 81.35 673.841 82.05C673.841 82.75 673.491 83.1 672.791 83.1H660.891C660.191 83.1 659.841 83.45 659.841 84.15V104.45C659.841 107.81 660.588 110.353 662.081 112.08C663.575 113.76 665.628 114.6 668.241 114.6C670.901 114.6 673.468 113.433 675.941 111.1ZM699.363 81H706.363C707.063 81 707.413 81.35 707.413 82.05V102.7C707.413 106.667 708.44 109.653 710.493 111.66C712.546 113.62 715.346 114.6 718.893 114.6C722.44 114.6 725.776 113.037 728.903 109.91C730.303 108.463 731.54 106.877 732.613 105.15V84.15C732.613 83.45 732.263 83.1 731.563 83.1H726.663C725.963 83.1 725.613 82.75 725.613 82.05C725.613 81.35 725.963 81 726.663 81H733.663C734.363 81 734.713 81.35 734.713 82.05V112.85C734.713 113.55 735.063 113.9 735.763 113.9H740.663C741.363 113.9 741.713 114.25 741.713 114.95C741.713 115.65 741.363 116 740.663 116H733.663C732.963 116 732.613 115.65 732.613 114.95V111.03C732.613 110.563 732.52 110.237 732.333 110.05C732.146 109.863 731.866 109.957 731.493 110.33C727.713 114.577 723.606 116.7 719.173 116.7C714.74 116.7 711.31 115.51 708.883 113.13C706.503 110.703 705.313 107.227 705.313 102.7V84.15C705.313 83.45 704.963 83.1 704.263 83.1H699.363C698.663 83.1 698.313 82.75 698.313 82.05C698.313 81.35 698.663 81 699.363 81ZM763.37 114.6C767.43 114.6 770.534 113.9 772.68 112.5C774.874 111.053 775.97 109.187 775.97 106.9C775.97 103.82 773.754 101.767 769.32 100.74C767.267 100.273 764.794 99.83 761.9 99.41C759.054 98.99 756.977 98.5933 755.67 98.22C752.87 97.4733 750.77 96.4467 749.37 95.14C747.97 93.7867 747.27 91.8967 747.27 89.47C747.27 86.9967 748.507 84.85 750.98 83.03C753.5 81.21 757 80.3 761.48 80.3C765.96 80.3 769.95 82.05 773.45 85.55C773.87 86.0167 774.15 86.11 774.29 85.83C774.477 85.55 774.57 85.2233 774.57 84.85V82.05C774.57 81.35 774.92 81 775.62 81C776.32 81 776.67 81.35 776.67 82.05V93.25C776.67 93.95 776.32 94.3 775.62 94.3C774.92 94.3 774.57 93.95 774.57 93.25V89.75C772.564 87.09 769.997 85.0133 766.87 83.52C765.237 82.7733 763.394 82.4 761.34 82.4C757.514 82.4 754.55 83.1 752.45 84.5C750.397 85.8533 749.37 87.58 749.37 89.68C749.37 91.78 750.257 93.4133 752.03 94.58C753.85 95.7 756.604 96.54 760.29 97.1C761.877 97.38 763.487 97.6367 765.12 97.87C766.754 98.1033 768.224 98.36 769.53 98.64C772.237 99.2467 774.337 100.18 775.83 101.44C777.324 102.7 778.07 104.637 778.07 107.25C778.07 109.817 776.834 112.033 774.36 113.9C771.934 115.767 768.27 116.7 763.37 116.7C759.544 116.7 755.997 115.58 752.73 113.34C751.797 112.687 751.074 112.103 750.56 111.59C750.047 111.03 749.72 110.89 749.58 111.17C749.44 111.45 749.37 111.777 749.37 112.15V114.95C749.37 115.65 749.02 116 748.32 116C747.62 116 747.27 115.65 747.27 114.95V103.75C747.27 103.05 747.62 102.7 748.32 102.7C749.02 102.7 749.37 103.05 749.37 103.75V107.25C751.284 109.957 753.897 112.033 757.21 113.48C758.937 114.227 760.99 114.6 763.37 114.6Z" fill="#BDCAD2"/>
<g filter="url(#filter0_f_114_133386)">
<path d="M341.12 24.95C341 24.59 340.82 24.41 340.58 24.41C340.34 24.41 340.16 24.59 340.04 24.95L327.71 56.99C327.23 57.89 327.56 58.34 328.7 58.34H352.46C353.54 58.34 353.87 57.89 353.45 56.99L341.12 24.95ZM355.52 62.3C355.16 61.46 354.44 61.04 353.36 61.04H327.8C326.72 61.04 326 61.46 325.64 62.3L319.25 78.95C318.77 79.85 319.07 80.3 320.15 80.3H325.55C326.45 80.3 326.9 80.75 326.9 81.65C326.9 82.55 326.45 83 325.55 83H308.45C307.55 83 307.1 82.55 307.1 81.65C307.1 80.75 307.55 80.3 308.45 80.3H314.3C315.02 80.3 315.62 79.85 316.1 78.95L338.6 20.45C338.84 19.55 339.5 19.1 340.58 19.1C341.66 19.1 342.32 19.55 342.56 20.45L365.06 78.95C365.48 79.85 366.08 80.3 366.86 80.3H372.71C373.61 80.3 374.06 80.75 374.06 81.65C374.06 82.55 373.61 83 372.71 83H355.61C354.71 83 354.26 82.55 354.26 81.65C354.26 80.75 354.71 80.3 355.61 80.3H361.01C362.03 80.3 362.33 79.85 361.91 78.95L355.52 62.3ZM384.467 69.05C385.847 71.45 387.377 73.49 389.057 75.17C393.077 79.19 397.577 81.2 402.557 81.2C407.597 81.2 411.677 79.4 414.797 75.8C417.977 72.14 419.567 67.07 419.567 60.59C419.567 54.05 417.677 49.1 413.897 45.74C410.117 42.38 404.807 40.7 397.967 40.7H385.817C384.917 40.7 384.467 41.15 384.467 42.05V69.05ZM384.467 36.65C384.467 37.55 384.917 38 385.817 38H397.967C405.587 38 411.527 39.95 415.787 43.85C420.107 47.75 422.267 53.33 422.267 60.59C422.267 67.79 420.467 73.49 416.867 77.69C413.267 81.83 408.467 83.9 402.467 83.9C398.747 83.9 395.387 83.03 392.387 81.29C389.567 79.49 387.407 77.63 385.907 75.71C385.427 75.23 385.067 75.11 384.827 75.35C384.587 75.59 384.467 76.01 384.467 76.61V81.65C384.467 82.55 384.017 83 383.117 83C382.217 83 381.767 82.55 381.767 81.65V24.05C381.767 23.15 381.317 22.7 380.417 22.7H374.117C373.217 22.7 372.767 22.25 372.767 21.35C372.767 20.45 373.217 20 374.117 20H383.117C384.017 20 384.467 20.45 384.467 21.35V36.65ZM437.714 77.42C433.634 73.1 431.594 67.46 431.594 60.5C431.594 53.54 433.634 47.9 437.714 43.58C441.794 39.26 447.104 37.1 453.644 37.1C460.184 37.1 465.494 39.26 469.574 43.58C473.654 47.9 475.694 53.54 475.694 60.5C475.694 67.46 473.654 73.1 469.574 77.42C465.494 81.74 460.184 83.9 453.644 83.9C447.104 83.9 441.794 81.74 437.714 77.42ZM453.644 39.8C447.824 39.8 443.144 41.69 439.604 45.47C436.064 49.25 434.294 54.29 434.294 60.59C434.294 66.83 436.034 71.84 439.514 75.62C443.054 79.34 447.764 81.2 453.644 81.2C459.524 81.2 464.204 79.34 467.684 75.62C471.224 71.84 472.994 66.83 472.994 60.59C472.994 54.29 471.224 49.25 467.684 45.47C464.144 41.69 459.464 39.8 453.644 39.8ZM482.254 38H491.254C492.154 38 492.604 38.45 492.604 39.35V65.9C492.604 71 493.924 74.84 496.564 77.42C499.204 79.94 502.804 81.2 507.364 81.2C511.924 81.2 516.214 79.19 520.234 75.17C522.034 73.31 523.624 71.27 525.004 69.05V42.05C525.004 41.15 524.554 40.7 523.654 40.7H517.354C516.454 40.7 516.004 40.25 516.004 39.35C516.004 38.45 516.454 38 517.354 38H526.354C527.254 38 527.704 38.45 527.704 39.35V78.95C527.704 79.85 528.154 80.3 529.054 80.3H535.354C536.254 80.3 536.704 80.75 536.704 81.65C536.704 82.55 536.254 83 535.354 83H526.354C525.454 83 525.004 82.55 525.004 81.65V76.61C525.004 76.01 524.884 75.59 524.644 75.35C524.404 75.11 524.044 75.23 523.564 75.71C518.704 81.17 513.424 83.9 507.724 83.9C502.024 83.9 497.614 82.37 494.494 79.31C491.434 76.19 489.904 71.72 489.904 65.9V42.05C489.904 41.15 489.454 40.7 488.554 40.7H482.254C481.354 40.7 480.904 40.25 480.904 39.35C480.904 38.45 481.354 38 482.254 38ZM571.496 76.7C572.096 76.1 572.636 76.04 573.116 76.52C573.596 77 573.836 77.39 573.836 77.69C573.896 77.99 573.686 78.38 573.206 78.86C571.766 80.3 570.326 81.38 568.886 82.1C565.166 83.36 563.036 83.96 562.496 83.9C561.956 83.9 561.656 83.9 561.596 83.9C557.396 83.9 554.096 82.55 551.696 79.85C549.296 77.15 548.096 73.25 548.096 68.15V42.05C548.096 41.15 547.646 40.7 546.746 40.7H540.446C539.546 40.7 539.096 40.25 539.096 39.35C539.096 38.45 539.546 38 540.446 38H546.746C547.646 38 548.096 37.55 548.096 36.65V21.35C548.096 20.45 548.546 20 549.446 20C550.346 20 550.796 20.45 550.796 21.35V36.65C550.796 37.55 551.246 38 552.146 38H567.446C568.346 38 568.796 38.45 568.796 39.35C568.796 40.25 568.346 40.7 567.446 40.7H552.146C551.246 40.7 550.796 41.15 550.796 42.05V68.15C550.796 72.47 551.756 75.74 553.676 77.96C555.596 80.12 558.236 81.2 561.596 81.2C565.016 81.2 568.316 79.7 571.496 76.7ZM601.61 38H610.61C611.51 38 611.96 38.45 611.96 39.35V65.9C611.96 71 613.28 74.84 615.92 77.42C618.56 79.94 622.16 81.2 626.72 81.2C631.28 81.2 635.57 79.19 639.59 75.17C641.39 73.31 642.98 71.27 644.36 69.05V42.05C644.36 41.15 643.91 40.7 643.01 40.7H636.71C635.81 40.7 635.36 40.25 635.36 39.35C635.36 38.45 635.81 38 636.71 38H645.71C646.61 38 647.06 38.45 647.06 39.35V78.95C647.06 79.85 647.51 80.3 648.41 80.3H654.71C655.61 80.3 656.06 80.75 656.06 81.65C656.06 82.55 655.61 83 654.71 83H645.71C644.81 83 644.36 82.55 644.36 81.65V76.61C644.36 76.01 644.24 75.59 644 75.35C643.76 75.11 643.4 75.23 642.92 75.71C638.06 81.17 632.78 83.9 627.08 83.9C621.38 83.9 616.97 82.37 613.85 79.31C610.79 76.19 609.26 71.72 609.26 65.9V42.05C609.26 41.15 608.81 40.7 607.91 40.7H601.61C600.71 40.7 600.26 40.25 600.26 39.35C600.26 38.45 600.71 38 601.61 38ZM683.905 81.2C689.125 81.2 693.115 80.3 695.875 78.5C698.695 76.64 700.105 74.24 700.105 71.3C700.105 67.34 697.255 64.7 691.555 63.38C688.915 62.78 685.735 62.21 682.015 61.67C678.355 61.13 675.685 60.62 674.005 60.14C670.405 59.18 667.705 57.86 665.905 56.18C664.105 54.44 663.205 52.01 663.205 48.89C663.205 45.71 664.795 42.95 667.975 40.61C671.215 38.27 675.715 37.1 681.475 37.1C687.235 37.1 692.365 39.35 696.865 43.85C697.405 44.45 697.765 44.57 697.945 44.21C698.185 43.85 698.305 43.43 698.305 42.95V39.35C698.305 38.45 698.755 38 699.655 38C700.555 38 701.005 38.45 701.005 39.35V53.75C701.005 54.65 700.555 55.1 699.655 55.1C698.755 55.1 698.305 54.65 698.305 53.75V49.25C695.725 45.83 692.425 43.16 688.405 41.24C686.305 40.28 683.935 39.8 681.295 39.8C676.375 39.8 672.565 40.7 669.865 42.5C667.225 44.24 665.905 46.46 665.905 49.16C665.905 51.86 667.045 53.96 669.325 55.46C671.665 56.9 675.205 57.98 679.945 58.7C681.985 59.06 684.055 59.39 686.155 59.69C688.255 59.99 690.145 60.32 691.825 60.68C695.305 61.46 698.005 62.66 699.925 64.28C701.845 65.9 702.805 68.39 702.805 71.75C702.805 75.05 701.215 77.9 698.035 80.3C694.915 82.7 690.205 83.9 683.905 83.9C678.985 83.9 674.425 82.46 670.225 79.58C669.025 78.74 668.095 77.99 667.435 77.33C666.775 76.61 666.355 76.43 666.175 76.79C665.995 77.15 665.905 77.57 665.905 78.05V81.65C665.905 82.55 665.455 83 664.555 83C663.655 83 663.205 82.55 663.205 81.65V67.25C663.205 66.35 663.655 65.9 664.555 65.9C665.455 65.9 665.905 66.35 665.905 67.25V71.75C668.365 75.23 671.725 77.9 675.985 79.76C678.205 80.72 680.845 81.2 683.905 81.2Z" fill="#BDCAD2" fill-opacity="0.2"/>
</g>
<line x1="6.71094" y1="139.5" x2="782" y2="139.5" stroke="#504F66"/>
<circle cx="8.5" cy="139.5" r="8.5" fill="#504F66"/>
<defs>
<filter id="filter0_f_114_133386" x="303.1" y="15.1" width="403.705" height="72.89" filterUnits="userSpaceOnUse" color-interpolation-filters="sRGB">
<feFlood flood-opacity="0" result="BackgroundImageFix"/>
<feBlend mode="normal" in="SourceGraphic" in2="BackgroundImageFix" result="shape"/>
<feGaussianBlur stdDeviation="2" result="effect1_foregroundBlur_114_133386"/>
</filter>
</defs>
</svg>
