<svg width="782" height="148" fill="none" xmlns="http://www.w3.org/2000/svg">
  <path
    d="M496.76 70.85c-.093-.28-.233-.42-.42-.42-.187 0-.327.14-.42.42l-9.59 24.92c-.373.7-.117 1.05.77 1.05h18.48c.84 0 1.097-.35.77-1.05l-9.59-24.92zm11.2 29.05c-.28-.653-.84-.98-1.68-.98H486.4c-.84 0-1.4.327-1.68.98l-4.97 12.95c-.373.7-.14 1.05.7 1.05h4.2c.7 0 1.05.35 1.05 1.05 0 .7-.35 1.05-1.05 1.05h-13.3c-.7 0-1.05-.35-1.05-1.05 0-.7.35-1.05 1.05-1.05h4.55c.56 0 1.027-.35 1.4-1.05l17.5-45.5c.187-.7.7-1.05 1.54-1.05.84 0 1.353.35 1.54 1.05l17.5 45.5c.327.7.793 1.05 1.4 1.05h4.55c.7 0 1.05.35 1.05 1.05 0 .7-.35 1.05-1.05 1.05h-13.3c-.7 0-1.05-.35-1.05-1.05 0-.7.35-1.05 1.05-1.05h4.2c.793 0 1.027-.35.7-1.05l-4.97-12.95zm22.514 5.25c1.074 1.867 2.264 3.453 3.57 4.76 3.127 3.127 6.627 4.69 10.5 4.69 3.92 0 7.094-1.4 9.52-4.2 2.474-2.847 3.71-6.79 3.71-11.83 0-5.087-1.47-8.937-4.41-11.55-2.94-2.613-7.07-3.92-12.39-3.92h-9.45c-.7 0-1.05.35-1.05 1.05v21zm0-25.2c0 .7.35 1.05 1.05 1.05h9.45c5.927 0 10.547 1.517 13.86 4.55 3.36 3.033 5.04 7.373 5.04 13.02 0 5.6-1.4 10.033-4.2 13.3-2.8 3.22-6.533 4.83-11.2 4.83-2.893 0-5.506-.677-7.84-2.03-2.193-1.4-3.873-2.847-5.04-4.34-.373-.373-.653-.467-.84-.28-.186.187-.28.513-.28.98v3.92c0 .7-.35 1.05-1.05 1.05-.7 0-1.05-.35-1.05-1.05v-44.8c0-.7-.35-1.05-1.05-1.05h-4.9c-.7 0-1.05-.35-1.05-1.05 0-.7.35-1.05 1.05-1.05h7c.7 0 1.05.35 1.05 1.05v11.9zm41.415 31.71c-3.174-3.36-4.76-7.747-4.76-13.16s1.586-9.8 4.76-13.16c3.173-3.36 7.303-5.04 12.39-5.04 5.086 0 9.216 1.68 12.39 5.04 3.173 3.36 4.76 7.747 4.76 13.16s-1.587 9.8-4.76 13.16c-3.174 3.36-7.304 5.04-12.39 5.04-5.087 0-9.217-1.68-12.39-5.04zm12.39-29.26c-4.527 0-8.167 1.47-10.92 4.41-2.754 2.94-4.13 6.86-4.13 11.76 0 4.853 1.353 8.75 4.06 11.69 2.753 2.893 6.416 4.34 10.99 4.34 4.573 0 8.213-1.447 10.92-4.34 2.753-2.94 4.13-6.837 4.13-11.69 0-4.9-1.377-8.82-4.13-11.76-2.754-2.94-6.394-4.41-10.92-4.41zm22.252-1.4h7c.7 0 1.05.35 1.05 1.05v20.65c0 3.967 1.027 6.953 3.08 8.96 2.053 1.96 4.853 2.94 8.4 2.94 3.547 0 6.883-1.563 10.01-4.69a28.312 28.312 0 003.71-4.76v-21c0-.7-.35-1.05-1.05-1.05h-4.9c-.7 0-1.05-.35-1.05-1.05 0-.7.35-1.05 1.05-1.05h7c.7 0 1.05.35 1.05 1.05v30.8c0 .7.35 1.05 1.05 1.05h4.9c.7 0 1.05.35 1.05 1.05 0 .7-.35 1.05-1.05 1.05h-7c-.7 0-1.05-.35-1.05-1.05v-3.92c0-.467-.093-.793-.28-.98-.187-.187-.467-.093-.84.28-3.78 4.247-7.887 6.37-12.32 6.37-4.433 0-7.863-1.19-10.29-3.57-2.38-2.427-3.57-5.903-3.57-10.43V84.15c0-.7-.35-1.05-1.05-1.05h-4.9c-.7 0-1.05-.35-1.05-1.05 0-.7.35-1.05 1.05-1.05zm69.41 30.1c.467-.467.887-.513 1.26-.14.374.373.56.677.56.91.047.233-.116.537-.49.91-1.12 1.12-2.24 1.96-3.36 2.52-2.893.98-4.55 1.447-4.97 1.4h-.7c-3.266 0-5.833-1.05-7.7-3.15-1.866-2.1-2.8-5.133-2.8-9.1v-20.3c0-.7-.35-1.05-1.05-1.05h-4.9c-.7 0-1.05-.35-1.05-1.05 0-.7.35-1.05 1.05-1.05h4.9c.7 0 1.05-.35 1.05-1.05v-11.9c0-.7.35-1.05 1.05-1.05.7 0 1.05.35 1.05 1.05v11.9c0 .7.35 1.05 1.05 1.05h11.9c.7 0 1.05.35 1.05 1.05 0 .7-.35 1.05-1.05 1.05h-11.9c-.7 0-1.05.35-1.05 1.05v20.3c0 3.36.747 5.903 2.24 7.63 1.494 1.68 3.547 2.52 6.16 2.52 2.66 0 5.227-1.167 7.7-3.5zM699.363 81h7c.7 0 1.05.35 1.05 1.05v20.65c0 3.967 1.027 6.953 3.08 8.96 2.053 1.96 4.853 2.94 8.4 2.94 3.547 0 6.883-1.563 10.01-4.69a28.312 28.312 0 003.71-4.76v-21c0-.7-.35-1.05-1.05-1.05h-4.9c-.7 0-1.05-.35-1.05-1.05 0-.7.35-1.05 1.05-1.05h7c.7 0 1.05.35 1.05 1.05v30.8c0 .7.35 1.05 1.05 1.05h4.9c.7 0 1.05.35 1.05 1.05 0 .7-.35 1.05-1.05 1.05h-7c-.7 0-1.05-.35-1.05-1.05v-3.92c0-.467-.093-.793-.28-.98-.187-.187-.467-.093-.84.28-3.78 4.247-7.887 6.37-12.32 6.37-4.433 0-7.863-1.19-10.29-3.57-2.38-2.427-3.57-5.903-3.57-10.43V84.15c0-.7-.35-1.05-1.05-1.05h-4.9c-.7 0-1.05-.35-1.05-1.05 0-.7.35-1.05 1.05-1.05zm64.007 33.6c4.06 0 7.164-.7 9.31-2.1 2.194-1.447 3.29-3.313 3.29-5.6 0-3.08-2.216-5.133-6.65-6.16-2.053-.467-4.526-.91-7.42-1.33-2.846-.42-4.923-.817-6.23-1.19-2.8-.747-4.9-1.773-6.3-3.08-1.4-1.353-2.1-3.243-2.1-5.67 0-2.473 1.237-4.62 3.71-6.44 2.52-1.82 6.02-2.73 10.5-2.73s8.47 1.75 11.97 5.25c.42.467.7.56.84.28.187-.28.28-.607.28-.98v-2.8c0-.7.35-1.05 1.05-1.05.7 0 1.05.35 1.05 1.05v11.2c0 .7-.35 1.05-1.05 1.05-.7 0-1.05-.35-1.05-1.05v-3.5c-2.006-2.66-4.573-4.737-7.7-6.23-1.633-.747-3.476-1.12-5.53-1.12-3.826 0-6.79.7-8.89 2.1-2.053 1.353-3.08 3.08-3.08 5.18 0 2.1.887 3.733 2.66 4.9 1.82 1.12 4.574 1.96 8.26 2.52 1.587.28 3.197.537 4.83.77 1.634.233 3.104.49 4.41.77 2.707.607 4.807 1.54 6.3 2.8 1.494 1.26 2.24 3.197 2.24 5.81 0 2.567-1.236 4.783-3.71 6.65-2.426 1.867-6.09 2.8-10.99 2.8-3.826 0-7.373-1.12-10.64-3.36-.933-.653-1.656-1.237-2.17-1.75-.513-.56-.84-.7-.98-.42-.14.28-.21.607-.21.98v2.8c0 .7-.35 1.05-1.05 1.05-.7 0-1.05-.35-1.05-1.05v-11.2c0-.7.35-1.05 1.05-1.05.7 0 1.05.35 1.05 1.05v3.5c1.914 2.707 4.527 4.783 7.84 6.23 1.727.747 3.78 1.12 6.16 1.12z"
    fill="#BDCAD2" />
  <g filter="url(#prefix__filter0_f_114_133386)">
    <path
      d="M341.12 24.95c-.12-.36-.3-.54-.54-.54-.24 0-.42.18-.54.54l-12.33 32.04c-.48.9-.15 1.35.99 1.35h23.76c1.08 0 1.41-.45.99-1.35l-12.33-32.04zm14.4 37.35c-.36-.84-1.08-1.26-2.16-1.26H327.8c-1.08 0-1.8.42-2.16 1.26l-6.39 16.65c-.48.9-.18 1.35.9 1.35h5.4c.9 0 1.35.45 1.35 1.35 0 .9-.45 1.35-1.35 1.35h-17.1c-.9 0-1.35-.45-1.35-1.35 0-.9.45-1.35 1.35-1.35h5.85c.72 0 1.32-.45 1.8-1.35l22.5-58.5c.24-.9.9-1.35 1.98-1.35s1.74.45 1.98 1.35l22.5 58.5c.42.9 1.02 1.35 1.8 1.35h5.85c.9 0 1.35.45 1.35 1.35 0 .9-.45 1.35-1.35 1.35h-17.1c-.9 0-1.35-.45-1.35-1.35 0-.9.45-1.35 1.35-1.35h5.4c1.02 0 1.32-.45.9-1.35l-6.39-16.65zm28.947 6.75c1.38 2.4 2.91 4.44 4.59 6.12 4.02 4.02 8.52 6.03 13.5 6.03 5.04 0 9.12-1.8 12.24-5.4 3.18-3.66 4.77-8.73 4.77-15.21 0-6.54-1.89-11.49-5.67-14.85-3.78-3.36-9.09-5.04-15.93-5.04h-12.15c-.9 0-1.35.45-1.35 1.35v27zm0-32.4c0 .9.45 1.35 1.35 1.35h12.15c7.62 0 13.56 1.95 17.82 5.85 4.32 3.9 6.48 9.48 6.48 16.74 0 7.2-1.8 12.9-5.4 17.1-3.6 4.14-8.4 6.21-14.4 6.21-3.72 0-7.08-.87-10.08-2.61-2.82-1.8-4.98-3.66-6.48-5.58-.48-.48-.84-.6-1.08-.36-.24.24-.36.66-.36 1.26v5.04c0 .9-.45 1.35-1.35 1.35-.9 0-1.35-.45-1.35-1.35v-57.6c0-.9-.45-1.35-1.35-1.35h-6.3c-.9 0-1.35-.45-1.35-1.35 0-.9.45-1.35 1.35-1.35h9c.9 0 1.35.45 1.35 1.35v15.3zm53.247 40.77c-4.08-4.32-6.12-9.96-6.12-16.92 0-6.96 2.04-12.6 6.12-16.92 4.08-4.32 9.39-6.48 15.93-6.48 6.54 0 11.85 2.16 15.93 6.48s6.12 9.96 6.12 16.92c0 6.96-2.04 12.6-6.12 16.92-4.08 4.32-9.39 6.48-15.93 6.48-6.54 0-11.85-2.16-15.93-6.48zm15.93-37.62c-5.82 0-10.5 1.89-14.04 5.67-3.54 3.78-5.31 8.82-5.31 15.12 0 6.24 1.74 11.25 5.22 15.03 3.54 3.72 8.25 5.58 14.13 5.58 5.88 0 10.56-1.86 14.04-5.58 3.54-3.78 5.31-8.79 5.31-15.03 0-6.3-1.77-11.34-5.31-15.12-3.54-3.78-8.22-5.67-14.04-5.67zm28.61-1.8h9c.9 0 1.35.45 1.35 1.35V65.9c0 5.1 1.32 8.94 3.96 11.52 2.64 2.52 6.24 3.78 10.8 3.78 4.56 0 8.85-2.01 12.87-6.03 1.8-1.86 3.39-3.9 4.77-6.12v-27c0-.9-.45-1.35-1.35-1.35h-6.3c-.9 0-1.35-.45-1.35-1.35 0-.9.45-1.35 1.35-1.35h9c.9 0 1.35.45 1.35 1.35v39.6c0 .9.45 1.35 1.35 1.35h6.3c.9 0 1.35.45 1.35 1.35 0 .9-.45 1.35-1.35 1.35h-9c-.9 0-1.35-.45-1.35-1.35v-5.04c0-.6-.12-1.02-.36-1.26s-.6-.12-1.08.36c-4.86 5.46-10.14 8.19-15.84 8.19-5.7 0-10.11-1.53-13.23-4.59-3.06-3.12-4.59-7.59-4.59-13.41V42.05c0-.9-.45-1.35-1.35-1.35h-6.3c-.9 0-1.35-.45-1.35-1.35 0-.9.45-1.35 1.35-1.35zm89.242 38.7c.6-.6 1.14-.66 1.62-.18.48.48.72.87.72 1.17.06.3-.15.69-.63 1.17-1.44 1.44-2.88 2.52-4.32 3.24-3.72 1.26-5.85 1.86-6.39 1.8h-.9c-4.2 0-7.5-1.35-9.9-4.05-2.4-2.7-3.6-6.6-3.6-11.7v-26.1c0-.9-.45-1.35-1.35-1.35h-6.3c-.9 0-1.35-.45-1.35-1.35 0-.9.45-1.35 1.35-1.35h6.3c.9 0 1.35-.45 1.35-1.35v-15.3c0-.9.45-1.35 1.35-1.35.9 0 1.35.45 1.35 1.35v15.3c0 .9.45 1.35 1.35 1.35h15.3c.9 0 1.35.45 1.35 1.35 0 .9-.45 1.35-1.35 1.35h-15.3c-.9 0-1.35.45-1.35 1.35v26.1c0 4.32.96 7.59 2.88 9.81 1.92 2.16 4.56 3.24 7.92 3.24 3.42 0 6.72-1.5 9.9-4.5zM601.61 38h9c.9 0 1.35.45 1.35 1.35V65.9c0 5.1 1.32 8.94 3.96 11.52 2.64 2.52 6.24 3.78 10.8 3.78 4.56 0 8.85-2.01 12.87-6.03 1.8-1.86 3.39-3.9 4.77-6.12v-27c0-.9-.45-1.35-1.35-1.35h-6.3c-.9 0-1.35-.45-1.35-1.35 0-.9.45-1.35 1.35-1.35h9c.9 0 1.35.45 1.35 1.35v39.6c0 .9.45 1.35 1.35 1.35h6.3c.9 0 1.35.45 1.35 1.35 0 .9-.45 1.35-1.35 1.35h-9c-.9 0-1.35-.45-1.35-1.35v-5.04c0-.6-.12-1.02-.36-1.26s-.6-.12-1.08.36c-4.86 5.46-10.14 8.19-15.84 8.19-5.7 0-10.11-1.53-13.23-4.59-3.06-3.12-4.59-7.59-4.59-13.41V42.05c0-.9-.45-1.35-1.35-1.35h-6.3c-.9 0-1.35-.45-1.35-1.35 0-.9.45-1.35 1.35-1.35zm82.295 43.2c5.22 0 9.21-.9 11.97-2.7 2.82-1.86 4.23-4.26 4.23-7.2 0-3.96-2.85-6.6-8.55-7.92-2.64-.6-5.82-1.17-9.54-1.71-3.66-.54-6.33-1.05-8.01-1.53-3.6-.96-6.3-2.28-8.1-3.96-1.8-1.74-2.7-4.17-2.7-7.29 0-3.18 1.59-5.94 4.77-8.28 3.24-2.34 7.74-3.51 13.5-3.51s10.89 2.25 15.39 6.75c.54.6.9.72 1.08.36.24-.36.36-.78.36-1.26v-3.6c0-.9.45-1.35 1.35-1.35.9 0 1.35.45 1.35 1.35v14.4c0 .9-.45 1.35-1.35 1.35-.9 0-1.35-.45-1.35-1.35v-4.5c-2.58-3.42-5.88-6.09-9.9-8.01-2.1-.96-4.47-1.44-7.11-1.44-4.92 0-8.73.9-11.43 2.7-2.64 1.74-3.96 3.96-3.96 6.66s1.14 4.8 3.42 6.3c2.34 1.44 5.88 2.52 10.62 3.24 2.04.36 4.11.69 6.21.99 2.1.3 3.99.63 5.67.99 3.48.78 6.18 1.98 8.1 3.6s2.88 4.11 2.88 7.47c0 3.3-1.59 6.15-4.77 8.55-3.12 2.4-7.83 3.6-14.13 3.6-4.92 0-9.48-1.44-13.68-4.32-1.2-.84-2.13-1.59-2.79-2.25-.66-.72-1.08-.9-1.26-.54-.18.36-.27.78-.27 1.26v3.6c0 .9-.45 1.35-1.35 1.35-.9 0-1.35-.45-1.35-1.35v-14.4c0-.9.45-1.35 1.35-1.35.9 0 1.35.45 1.35 1.35v4.5c2.46 3.48 5.82 6.15 10.08 8.01 2.22.96 4.86 1.44 7.92 1.44z"
      fill="#BDCAD2" fill-opacity=".2" />
  </g>
  <path stroke="#504F66" d="M6.711 139.5H782" />
  <circle cx="8.5" cy="139.5" r="8.5" fill="#504F66" />
  <defs>
    <filter id="prefix__filter0_f_114_133386" x="303.1" y="15.1" width="403.705" height="72.89"
      filterUnits="userSpaceOnUse" color-interpolation-filters="sRGB">
      <feFlood flood-opacity="0" result="BackgroundImageFix" />
      <feBlend in="SourceGraphic" in2="BackgroundImageFix" result="shape" />
      <feGaussianBlur stdDeviation="2" result="effect1_foregroundBlur_114_133386" />
    </filter>
  </defs>
</svg>